<mxfile host="app.diagrams.net" agent="Mozilla/5.0 (Macintosh; Intel Mac OS X 10_15_7) AppleWebKit/537.36 (KHTML, like Gecko) Chrome/134.0.0.0 Safari/537.36" version="26.1.3">
  <diagram name="Page-1" id="dPI5HspIhkFptaoozQgk">
    <mxGraphModel dx="7025" dy="3071" grid="1" gridSize="10" guides="1" tooltips="1" connect="1" arrows="1" fold="1" page="1" pageScale="1" pageWidth="827" pageHeight="1169" math="0" shadow="0">
      <root>
        <mxCell id="0" />
        <mxCell id="1" parent="0" />
        <mxCell id="sqZSUwt8y7oiJ_LlSGiX-1" value="&lt;font style=&quot;font-size: 25px;&quot;&gt;Matchemotor&lt;/font&gt;" style="rounded=0;whiteSpace=wrap;html=1;labelPosition=left;verticalLabelPosition=middle;align=right;verticalAlign=middle;textDirection=vertical-rl;textShadow=0;gradientColor=light-dark(#ffffff, #ededed);" parent="1" vertex="1">
          <mxGeometry x="-840" y="-280" width="1980" height="390" as="geometry" />
        </mxCell>
        <mxCell id="sqZSUwt8y7oiJ_LlSGiX-2" value="&lt;font style=&quot;font-size: 25px;&quot;&gt;Leder av enhet i omstilling&lt;/font&gt;" style="rounded=0;whiteSpace=wrap;html=1;labelPosition=left;verticalLabelPosition=middle;align=right;verticalAlign=middle;textDirection=vertical-rl;fontSize=32;gradientColor=light-dark(#ffffff, #ededed);" parent="1" vertex="1">
          <mxGeometry x="-840" y="-670" width="1980" height="390" as="geometry" />
        </mxCell>
        <mxCell id="sqZSUwt8y7oiJ_LlSGiX-6" value="&lt;font style=&quot;font-size: 25px;&quot;&gt;Leder med bemanningsbehov&lt;/font&gt;" style="rounded=0;whiteSpace=wrap;html=1;labelPosition=left;verticalLabelPosition=middle;align=right;verticalAlign=middle;textDirection=vertical-rl;fontSize=32;" parent="1" vertex="1">
          <mxGeometry x="-840" y="110" width="1980" height="390" as="geometry" />
        </mxCell>
        <mxCell id="sqZSUwt8y7oiJ_LlSGiX-12" value="" style="edgeStyle=orthogonalEdgeStyle;rounded=0;orthogonalLoop=1;jettySize=auto;html=1;" parent="1" source="sqZSUwt8y7oiJ_LlSGiX-7" target="sqZSUwt8y7oiJ_LlSGiX-8" edge="1">
          <mxGeometry relative="1" as="geometry" />
        </mxCell>
        <mxCell id="sqZSUwt8y7oiJ_LlSGiX-7" value="Registrere kandidaten i matchemotor" style="rounded=1;whiteSpace=wrap;html=1;textShadow=1;labelBackgroundColor=none;fillColor=#fff2cc;strokeColor=#000000;gradientColor=#FFFFFF;gradientDirection=east;perimeterSpacing=0;spacing=4;" parent="1" vertex="1">
          <mxGeometry x="-790" y="-260" width="120" height="60" as="geometry" />
        </mxCell>
        <mxCell id="sqZSUwt8y7oiJ_LlSGiX-13" value="" style="edgeStyle=orthogonalEdgeStyle;rounded=0;orthogonalLoop=1;jettySize=auto;html=1;" parent="1" source="sqZSUwt8y7oiJ_LlSGiX-8" target="sqZSUwt8y7oiJ_LlSGiX-11" edge="1">
          <mxGeometry relative="1" as="geometry" />
        </mxCell>
        <mxCell id="sqZSUwt8y7oiJ_LlSGiX-8" value="Registrere kandidatens matchekriterium" style="rounded=1;whiteSpace=wrap;html=1;textShadow=1;labelBackgroundColor=none;fillColor=#fff2cc;strokeColor=#000000;gradientColor=#FFFFFF;gradientDirection=east;perimeterSpacing=0;spacing=4;" parent="1" vertex="1">
          <mxGeometry x="-710" y="-170" width="120" height="60" as="geometry" />
        </mxCell>
        <mxCell id="sqZSUwt8y7oiJ_LlSGiX-15" value="" style="edgeStyle=orthogonalEdgeStyle;rounded=0;orthogonalLoop=1;jettySize=auto;html=1;" parent="1" source="sqZSUwt8y7oiJ_LlSGiX-9" target="sqZSUwt8y7oiJ_LlSGiX-10" edge="1">
          <mxGeometry relative="1" as="geometry" />
        </mxCell>
        <mxCell id="sqZSUwt8y7oiJ_LlSGiX-9" value="Registrere stillingen i matchemotor" style="rounded=1;whiteSpace=wrap;html=1;textShadow=1;labelBackgroundColor=none;fillColor=#fff2cc;strokeColor=#000000;gradientColor=#FFFFFF;gradientDirection=east;perimeterSpacing=0;spacing=4;" parent="1" vertex="1">
          <mxGeometry x="-790" y="30" width="120" height="60" as="geometry" />
        </mxCell>
        <mxCell id="sqZSUwt8y7oiJ_LlSGiX-14" value="" style="edgeStyle=orthogonalEdgeStyle;rounded=0;orthogonalLoop=1;jettySize=auto;html=1;" parent="1" source="sqZSUwt8y7oiJ_LlSGiX-10" target="sqZSUwt8y7oiJ_LlSGiX-11" edge="1">
          <mxGeometry relative="1" as="geometry" />
        </mxCell>
        <mxCell id="sqZSUwt8y7oiJ_LlSGiX-10" value="Registrere stillingens matchekriterium" style="rounded=1;whiteSpace=wrap;html=1;textShadow=1;labelBackgroundColor=none;fillColor=#fff2cc;strokeColor=#000000;gradientColor=#FFFFFF;gradientDirection=east;perimeterSpacing=0;spacing=4;" parent="1" vertex="1">
          <mxGeometry x="-710" y="-60" width="120" height="60" as="geometry" />
        </mxCell>
        <mxCell id="sqZSUwt8y7oiJ_LlSGiX-34" value="" style="edgeStyle=orthogonalEdgeStyle;rounded=0;orthogonalLoop=1;jettySize=auto;html=1;" parent="1" source="sqZSUwt8y7oiJ_LlSGiX-11" target="sqZSUwt8y7oiJ_LlSGiX-31" edge="1">
          <mxGeometry relative="1" as="geometry" />
        </mxCell>
        <mxCell id="sqZSUwt8y7oiJ_LlSGiX-11" value="Lete etter passende stilling utfra kriteriene" style="rounded=1;whiteSpace=wrap;html=1;textShadow=1;labelBackgroundColor=none;fillColor=#fff2cc;strokeColor=#000000;gradientColor=#FFFFFF;gradientDirection=east;perimeterSpacing=0;spacing=4;" parent="1" vertex="1">
          <mxGeometry x="-540" y="-115" width="120" height="60" as="geometry" />
        </mxCell>
        <mxCell id="sqZSUwt8y7oiJ_LlSGiX-18" value="" style="edgeStyle=orthogonalEdgeStyle;rounded=0;orthogonalLoop=1;jettySize=auto;html=1;entryX=0.5;entryY=0;entryDx=0;entryDy=0;" parent="1" source="sqZSUwt8y7oiJ_LlSGiX-16" target="sqZSUwt8y7oiJ_LlSGiX-7" edge="1">
          <mxGeometry relative="1" as="geometry">
            <mxPoint x="-730" y="-375" as="targetPoint" />
          </mxGeometry>
        </mxCell>
        <mxCell id="sqZSUwt8y7oiJ_LlSGiX-16" value="Omstillingspersonens status er &quot;a&lt;span style=&quot;background-color: transparent; color: light-dark(rgb(0, 0, 0), rgb(255, 255, 255));&quot;&gt;nnen passende stilling&quot;&lt;/span&gt;" style="ellipse;html=1;shape=endState;fillColor=#000000;strokeColor=#ff0000;labelPosition=center;verticalLabelPosition=top;align=center;verticalAlign=bottom;whiteSpace=wrap;" parent="1" vertex="1">
          <mxGeometry x="-745" y="-525" width="30" height="30" as="geometry" />
        </mxCell>
        <mxCell id="sqZSUwt8y7oiJ_LlSGiX-20" value="" style="edgeStyle=orthogonalEdgeStyle;rounded=0;orthogonalLoop=1;jettySize=auto;html=1;" parent="1" source="sqZSUwt8y7oiJ_LlSGiX-19" target="sqZSUwt8y7oiJ_LlSGiX-9" edge="1">
          <mxGeometry relative="1" as="geometry" />
        </mxCell>
        <mxCell id="sqZSUwt8y7oiJ_LlSGiX-19" value="Stilling er publisert" style="ellipse;html=1;shape=endState;fillColor=#000000;strokeColor=#ff0000;labelPosition=center;verticalLabelPosition=bottom;align=center;verticalAlign=top;whiteSpace=wrap;" parent="1" vertex="1">
          <mxGeometry x="-745" y="290" width="30" height="30" as="geometry" />
        </mxCell>
        <mxCell id="sqZSUwt8y7oiJ_LlSGiX-36" value="" style="edgeStyle=orthogonalEdgeStyle;rounded=0;orthogonalLoop=1;jettySize=auto;html=1;entryX=0.5;entryY=1;entryDx=0;entryDy=0;" parent="1" source="sqZSUwt8y7oiJ_LlSGiX-31" target="sqZSUwt8y7oiJ_LlSGiX-37" edge="1">
          <mxGeometry relative="1" as="geometry">
            <mxPoint x="-345" y="-167.5" as="targetPoint" />
          </mxGeometry>
        </mxCell>
        <mxCell id="sqZSUwt8y7oiJ_LlSGiX-38" value="Ja" style="edgeLabel;html=1;align=center;verticalAlign=middle;resizable=0;points=[];" parent="sqZSUwt8y7oiJ_LlSGiX-36" vertex="1" connectable="0">
          <mxGeometry x="-0.5395" relative="1" as="geometry">
            <mxPoint y="24" as="offset" />
          </mxGeometry>
        </mxCell>
        <mxCell id="sqZSUwt8y7oiJ_LlSGiX-40" value="" style="edgeStyle=orthogonalEdgeStyle;rounded=0;orthogonalLoop=1;jettySize=auto;html=1;entryX=0;entryY=0.5;entryDx=0;entryDy=0;" parent="1" source="sqZSUwt8y7oiJ_LlSGiX-31" target="sqZSUwt8y7oiJ_LlSGiX-78" edge="1">
          <mxGeometry relative="1" as="geometry">
            <mxPoint x="-235" y="-85.00000000000023" as="targetPoint" />
          </mxGeometry>
        </mxCell>
        <mxCell id="sqZSUwt8y7oiJ_LlSGiX-89" value="Nei" style="edgeLabel;html=1;align=center;verticalAlign=middle;resizable=0;points=[];" parent="sqZSUwt8y7oiJ_LlSGiX-40" vertex="1" connectable="0">
          <mxGeometry x="-0.9524" y="1" relative="1" as="geometry">
            <mxPoint as="offset" />
          </mxGeometry>
        </mxCell>
        <mxCell id="sqZSUwt8y7oiJ_LlSGiX-31" value="Passende stilling funnet?" style="rhombus;whiteSpace=wrap;html=1;labelPosition=center;verticalLabelPosition=bottom;align=center;verticalAlign=top;gradientColor=#FFFFFF;gradientDirection=east;fillColor=#FFF2CC;" parent="1" vertex="1">
          <mxGeometry x="-360" y="-101.25" width="30" height="32.5" as="geometry" />
        </mxCell>
        <mxCell id="sqZSUwt8y7oiJ_LlSGiX-43" value="" style="edgeStyle=orthogonalEdgeStyle;rounded=0;orthogonalLoop=1;jettySize=auto;html=1;" parent="1" source="sqZSUwt8y7oiJ_LlSGiX-37" target="sqZSUwt8y7oiJ_LlSGiX-42" edge="1">
          <mxGeometry relative="1" as="geometry" />
        </mxCell>
        <mxCell id="sqZSUwt8y7oiJ_LlSGiX-37" value="Presentere resultatet" style="rounded=1;whiteSpace=wrap;html=1;textShadow=1;labelBackgroundColor=none;fillColor=#fff2cc;strokeColor=#000000;gradientColor=#FFFFFF;gradientDirection=east;perimeterSpacing=0;spacing=4;" parent="1" vertex="1">
          <mxGeometry x="-405" y="-390" width="120" height="60" as="geometry" />
        </mxCell>
        <mxCell id="sqZSUwt8y7oiJ_LlSGiX-47" value="" style="edgeStyle=orthogonalEdgeStyle;rounded=0;orthogonalLoop=1;jettySize=auto;html=1;" parent="1" source="sqZSUwt8y7oiJ_LlSGiX-42" target="sqZSUwt8y7oiJ_LlSGiX-44" edge="1">
          <mxGeometry relative="1" as="geometry" />
        </mxCell>
        <mxCell id="sqZSUwt8y7oiJ_LlSGiX-42" value="Vurdere forslaget fra matchemotor" style="rounded=1;whiteSpace=wrap;html=1;textShadow=1;labelBackgroundColor=none;fillColor=#fff2cc;strokeColor=#000000;gradientColor=#FFFFFF;gradientDirection=east;perimeterSpacing=0;spacing=4;" parent="1" vertex="1">
          <mxGeometry x="-405" y="-540" width="120" height="60" as="geometry" />
        </mxCell>
        <mxCell id="sqZSUwt8y7oiJ_LlSGiX-49" value="" style="edgeStyle=orthogonalEdgeStyle;rounded=0;orthogonalLoop=1;jettySize=auto;html=1;entryX=0;entryY=0.5;entryDx=0;entryDy=0;" parent="1" source="sqZSUwt8y7oiJ_LlSGiX-44" target="sqZSUwt8y7oiJ_LlSGiX-46" edge="1">
          <mxGeometry relative="1" as="geometry">
            <mxPoint x="-185" y="-606.25" as="targetPoint" />
            <Array as="points">
              <mxPoint x="-185" y="-600" />
            </Array>
          </mxGeometry>
        </mxCell>
        <mxCell id="sqZSUwt8y7oiJ_LlSGiX-88" value="Nei" style="edgeLabel;html=1;align=center;verticalAlign=middle;resizable=0;points=[];" parent="sqZSUwt8y7oiJ_LlSGiX-49" vertex="1" connectable="0">
          <mxGeometry x="-0.2702" y="-1" relative="1" as="geometry">
            <mxPoint x="-1" y="24" as="offset" />
          </mxGeometry>
        </mxCell>
        <mxCell id="sqZSUwt8y7oiJ_LlSGiX-52" value="" style="edgeStyle=orthogonalEdgeStyle;rounded=0;orthogonalLoop=1;jettySize=auto;html=1;entryX=0.008;entryY=0.614;entryDx=0;entryDy=0;entryPerimeter=0;" parent="1" source="sqZSUwt8y7oiJ_LlSGiX-44" target="sqZSUwt8y7oiJ_LlSGiX-45" edge="1">
          <mxGeometry relative="1" as="geometry">
            <mxPoint x="-185" y="-397.5" as="targetPoint" />
            <Array as="points">
              <mxPoint x="-185" y="-413" />
            </Array>
          </mxGeometry>
        </mxCell>
        <mxCell id="sqZSUwt8y7oiJ_LlSGiX-87" value="Ja" style="edgeLabel;html=1;align=center;verticalAlign=middle;resizable=0;points=[];" parent="sqZSUwt8y7oiJ_LlSGiX-52" vertex="1" connectable="0">
          <mxGeometry x="-0.5911" relative="1" as="geometry">
            <mxPoint y="-1" as="offset" />
          </mxGeometry>
        </mxCell>
        <mxCell id="sqZSUwt8y7oiJ_LlSGiX-44" value="Er stillingen aktuell?" style="rhombus;whiteSpace=wrap;html=1;labelPosition=right;verticalLabelPosition=middle;align=left;verticalAlign=middle;gradientColor=#FFFFFF;gradientDirection=east;fillColor=#FFF2CC;" parent="1" vertex="1">
          <mxGeometry x="-200" y="-526.25" width="30" height="32.5" as="geometry" />
        </mxCell>
        <mxCell id="sqZSUwt8y7oiJ_LlSGiX-54" value="" style="edgeStyle=orthogonalEdgeStyle;rounded=0;orthogonalLoop=1;jettySize=auto;html=1;entryX=0.5;entryY=0;entryDx=0;entryDy=0;" parent="1" source="sqZSUwt8y7oiJ_LlSGiX-45" target="sqZSUwt8y7oiJ_LlSGiX-53" edge="1">
          <mxGeometry relative="1" as="geometry" />
        </mxCell>
        <mxCell id="sqZSUwt8y7oiJ_LlSGiX-45" value="Varsle leder med bemanningsbehov" style="rounded=1;whiteSpace=wrap;html=1;textShadow=1;labelBackgroundColor=none;fillColor=#fff2cc;strokeColor=#000000;gradientColor=#FFFFFF;gradientDirection=east;perimeterSpacing=0;spacing=4;" parent="1" vertex="1">
          <mxGeometry x="-130" y="-450" width="120" height="60" as="geometry" />
        </mxCell>
        <mxCell id="sqZSUwt8y7oiJ_LlSGiX-81" value="" style="edgeStyle=orthogonalEdgeStyle;rounded=0;orthogonalLoop=1;jettySize=auto;html=1;entryX=0.5;entryY=0;entryDx=0;entryDy=0;" parent="1" source="sqZSUwt8y7oiJ_LlSGiX-46" target="sqZSUwt8y7oiJ_LlSGiX-78" edge="1">
          <mxGeometry relative="1" as="geometry">
            <mxPoint x="130" y="-600" as="targetPoint" />
          </mxGeometry>
        </mxCell>
        <mxCell id="sqZSUwt8y7oiJ_LlSGiX-46" value="Skrive begrunnelse" style="rounded=1;whiteSpace=wrap;html=1;textShadow=1;labelBackgroundColor=none;fillColor=#fff2cc;strokeColor=#000000;gradientColor=#FFFFFF;gradientDirection=east;perimeterSpacing=0;spacing=4;" parent="1" vertex="1">
          <mxGeometry x="-130" y="-630" width="120" height="60" as="geometry" />
        </mxCell>
        <mxCell id="sqZSUwt8y7oiJ_LlSGiX-57" value="" style="edgeStyle=orthogonalEdgeStyle;rounded=0;orthogonalLoop=1;jettySize=auto;html=1;entryX=0;entryY=0.5;entryDx=0;entryDy=0;" parent="1" source="sqZSUwt8y7oiJ_LlSGiX-53" target="sqZSUwt8y7oiJ_LlSGiX-55" edge="1">
          <mxGeometry relative="1" as="geometry">
            <mxPoint x="70" y="305" as="targetPoint" />
          </mxGeometry>
        </mxCell>
        <mxCell id="sqZSUwt8y7oiJ_LlSGiX-53" value="Vurdere kandidaten" style="rounded=1;whiteSpace=wrap;html=1;textShadow=1;labelBackgroundColor=none;fillColor=#fff2cc;strokeColor=#000000;gradientColor=#FFFFFF;gradientDirection=east;perimeterSpacing=0;spacing=4;" parent="1" vertex="1">
          <mxGeometry x="-130" y="275" width="120" height="60" as="geometry" />
        </mxCell>
        <mxCell id="sqZSUwt8y7oiJ_LlSGiX-60" value="" style="edgeStyle=orthogonalEdgeStyle;rounded=0;orthogonalLoop=1;jettySize=auto;html=1;entryX=0.5;entryY=1;entryDx=0;entryDy=0;" parent="1" source="sqZSUwt8y7oiJ_LlSGiX-55" target="sqZSUwt8y7oiJ_LlSGiX-58" edge="1">
          <mxGeometry relative="1" as="geometry">
            <mxPoint x="190" y="165" as="targetPoint" />
          </mxGeometry>
        </mxCell>
        <mxCell id="sqZSUwt8y7oiJ_LlSGiX-55" value="Orientere medarbeiderens leder" style="rounded=1;whiteSpace=wrap;html=1;textShadow=1;labelBackgroundColor=none;fillColor=#fff2cc;strokeColor=#000000;gradientColor=#FFFFFF;gradientDirection=east;perimeterSpacing=0;spacing=4;" parent="1" vertex="1">
          <mxGeometry x="130" y="275" width="120" height="60" as="geometry" />
        </mxCell>
        <mxCell id="sqZSUwt8y7oiJ_LlSGiX-71" value="" style="edgeStyle=orthogonalEdgeStyle;rounded=0;orthogonalLoop=1;jettySize=auto;html=1;entryX=0;entryY=0.5;entryDx=0;entryDy=0;" parent="1" source="sqZSUwt8y7oiJ_LlSGiX-58" target="sqZSUwt8y7oiJ_LlSGiX-61" edge="1">
          <mxGeometry relative="1" as="geometry">
            <mxPoint x="390" y="-420" as="targetPoint" />
          </mxGeometry>
        </mxCell>
        <mxCell id="sqZSUwt8y7oiJ_LlSGiX-58" value="Orientere medarbeideren" style="rounded=1;whiteSpace=wrap;html=1;textShadow=1;labelBackgroundColor=none;fillColor=#fff2cc;strokeColor=#000000;gradientColor=#FFFFFF;gradientDirection=east;perimeterSpacing=0;spacing=4;" parent="1" vertex="1">
          <mxGeometry x="130" y="-540" width="120" height="60" as="geometry" />
        </mxCell>
        <mxCell id="sqZSUwt8y7oiJ_LlSGiX-65" value="" style="edgeStyle=orthogonalEdgeStyle;rounded=0;orthogonalLoop=1;jettySize=auto;html=1;entryX=0.5;entryY=0;entryDx=0;entryDy=0;" parent="1" source="sqZSUwt8y7oiJ_LlSGiX-61" target="sqZSUwt8y7oiJ_LlSGiX-72" edge="1">
          <mxGeometry relative="1" as="geometry">
            <mxPoint x="435" y="-307.5" as="targetPoint" />
          </mxGeometry>
        </mxCell>
        <mxCell id="sqZSUwt8y7oiJ_LlSGiX-66" value="Ja" style="edgeLabel;html=1;align=center;verticalAlign=middle;resizable=0;points=[];" parent="sqZSUwt8y7oiJ_LlSGiX-65" vertex="1" connectable="0">
          <mxGeometry x="-0.0408" y="-3" relative="1" as="geometry">
            <mxPoint x="3" y="-325" as="offset" />
          </mxGeometry>
        </mxCell>
        <mxCell id="sqZSUwt8y7oiJ_LlSGiX-68" value="" style="edgeStyle=orthogonalEdgeStyle;rounded=0;orthogonalLoop=1;jettySize=auto;html=1;entryX=0.5;entryY=0;entryDx=0;entryDy=0;" parent="1" source="sqZSUwt8y7oiJ_LlSGiX-61" target="sqZSUwt8y7oiJ_LlSGiX-78" edge="1">
          <mxGeometry relative="1" as="geometry">
            <mxPoint x="545" y="-420" as="targetPoint" />
          </mxGeometry>
        </mxCell>
        <mxCell id="sqZSUwt8y7oiJ_LlSGiX-69" value="Nei" style="edgeLabel;html=1;align=center;verticalAlign=middle;resizable=0;points=[];" parent="sqZSUwt8y7oiJ_LlSGiX-68" vertex="1" connectable="0">
          <mxGeometry x="0.0651" y="-2" relative="1" as="geometry">
            <mxPoint x="-463" y="-2" as="offset" />
          </mxGeometry>
        </mxCell>
        <mxCell id="sqZSUwt8y7oiJ_LlSGiX-61" value="Er medarbeider aktuell for stillingen?" style="rhombus;whiteSpace=wrap;html=1;labelPosition=center;verticalLabelPosition=top;align=center;verticalAlign=bottom;gradientColor=#FFFFFF;gradientDirection=east;fillColor=#FFF2CC;" parent="1" vertex="1">
          <mxGeometry x="420" y="-526.25" width="30" height="32.5" as="geometry" />
        </mxCell>
        <mxCell id="sqZSUwt8y7oiJ_LlSGiX-75" value="" style="edgeStyle=orthogonalEdgeStyle;rounded=0;orthogonalLoop=1;jettySize=auto;html=1;entryX=0;entryY=0.5;entryDx=0;entryDy=0;" parent="1" source="sqZSUwt8y7oiJ_LlSGiX-72" target="sqZSUwt8y7oiJ_LlSGiX-73" edge="1">
          <mxGeometry relative="1" as="geometry">
            <mxPoint x="635" y="305" as="targetPoint" />
          </mxGeometry>
        </mxCell>
        <mxCell id="sqZSUwt8y7oiJ_LlSGiX-72" value="Vurdere matchen etter samtale med kandidaten" style="rounded=1;whiteSpace=wrap;html=1;textShadow=1;labelBackgroundColor=none;fillColor=#fff2cc;strokeColor=#000000;gradientColor=#FFFFFF;gradientDirection=east;perimeterSpacing=0;spacing=4;" parent="1" vertex="1">
          <mxGeometry x="375" y="275" width="120" height="60" as="geometry" />
        </mxCell>
        <mxCell id="sqZSUwt8y7oiJ_LlSGiX-84" value="" style="edgeStyle=orthogonalEdgeStyle;rounded=0;orthogonalLoop=1;jettySize=auto;html=1;entryX=0.5;entryY=1;entryDx=0;entryDy=0;" parent="1" source="sqZSUwt8y7oiJ_LlSGiX-73" target="sqZSUwt8y7oiJ_LlSGiX-76" edge="1">
          <mxGeometry relative="1" as="geometry">
            <mxPoint x="710" y="205" as="targetPoint" />
          </mxGeometry>
        </mxCell>
        <mxCell id="sqZSUwt8y7oiJ_LlSGiX-73" value="Orientere medarbeiderens leder" style="rounded=1;whiteSpace=wrap;html=1;textShadow=1;labelBackgroundColor=none;fillColor=#fff2cc;strokeColor=#000000;gradientColor=#FFFFFF;gradientDirection=east;perimeterSpacing=0;spacing=4;" parent="1" vertex="1">
          <mxGeometry x="650" y="275" width="120" height="60" as="geometry" />
        </mxCell>
        <mxCell id="sqZSUwt8y7oiJ_LlSGiX-86" value="" style="edgeStyle=orthogonalEdgeStyle;rounded=0;orthogonalLoop=1;jettySize=auto;html=1;entryX=0.5;entryY=0;entryDx=0;entryDy=0;" parent="1" source="sqZSUwt8y7oiJ_LlSGiX-76" target="sqZSUwt8y7oiJ_LlSGiX-78" edge="1">
          <mxGeometry relative="1" as="geometry">
            <mxPoint x="910" y="-373.75" as="targetPoint" />
          </mxGeometry>
        </mxCell>
        <mxCell id="sqZSUwt8y7oiJ_LlSGiX-76" value="Orientere medarbeideren om vurderingen" style="rounded=1;whiteSpace=wrap;html=1;textShadow=1;labelBackgroundColor=none;fillColor=#fff2cc;strokeColor=#000000;gradientColor=#FFFFFF;gradientDirection=east;perimeterSpacing=0;spacing=4;" parent="1" vertex="1">
          <mxGeometry x="650" y="-403.75" width="120" height="60" as="geometry" />
        </mxCell>
        <mxCell id="sqZSUwt8y7oiJ_LlSGiX-78" value="" style="ellipse;html=1;shape=endState;fillColor=#000000;strokeColor=#ff0000;labelPosition=center;verticalLabelPosition=top;align=center;verticalAlign=bottom;whiteSpace=wrap;" parent="1" vertex="1">
          <mxGeometry x="980" y="-100" width="30" height="30" as="geometry" />
        </mxCell>
        <mxCell id="sqZSUwt8y7oiJ_LlSGiX-90" value="" style="shape=image;html=1;verticalLabelPosition=bottom;verticalAlign=top;imageAspect=1;aspect=fixed;image=img/clipart/Gear_128x128.png" parent="1" vertex="1">
          <mxGeometry x="-540" y="-122.25" width="17.9" height="21" as="geometry" />
        </mxCell>
        <mxCell id="sqZSUwt8y7oiJ_LlSGiX-91" value="" style="shape=image;html=1;verticalLabelPosition=bottom;verticalAlign=top;imageAspect=1;aspect=fixed;image=img/clipart/Gear_128x128.png" parent="1" vertex="1">
          <mxGeometry x="-405" y="-400" width="17.9" height="21" as="geometry" />
        </mxCell>
        <mxCell id="sqZSUwt8y7oiJ_LlSGiX-92" value="&lt;font style=&quot;font-size: 40px;&quot;&gt;Matcheprosess&lt;/font&gt;" style="text;html=1;align=center;verticalAlign=middle;whiteSpace=wrap;rounded=0;" parent="1" vertex="1">
          <mxGeometry x="-10" y="-750" width="340" height="100" as="geometry" />
        </mxCell>
      </root>
    </mxGraphModel>
  </diagram>
</mxfile>
